<svg width="41" height="41" viewBox="0 0 41 41" fill="none" xmlns="http://www.w3.org/2000/svg">
<mask id="mask0_2302_7558" style="mask-type:alpha" maskUnits="userSpaceOnUse" x="0" y="0" width="41" height="41">
<rect x="15" width="30" height="30" transform="rotate(30 15 0)" fill="#D9D9D9"/>
</mask>
<g mask="url(#mask0_2302_7558)">
<path d="M12.7841 27.5881C15.1837 28.9736 17.7139 29.3098 20.3748 28.5968C23.0357 27.8838 25.0589 26.3275 26.4443 23.9279C27.8297 21.5283 28.1659 18.998 27.453 16.3371C26.74 13.6762 25.1837 11.653 22.7841 10.2676L22.2157 9.93951C22.0353 9.83534 21.8535 9.75443 21.6703 9.69676C22.0112 11.4813 22.0413 13.2728 21.7607 15.0714C21.4801 16.87 20.8762 18.5721 19.9491 20.1779C19.022 21.7836 17.8499 23.1577 16.4326 24.3C15.0153 25.4423 13.4487 26.312 11.7328 26.909C11.8743 27.0389 12.0353 27.1559 12.2157 27.26L12.7841 27.5881ZM11.5341 29.7532C10.5778 29.2011 9.71445 28.5403 8.94394 27.7707C8.17344 27.0011 7.51384 26.1331 6.96515 25.1668C9.20557 25.1613 11.2876 24.6072 13.2112 23.5046C15.1348 22.402 16.6591 20.8764 17.7841 18.9279C18.9091 16.9793 19.4681 14.8965 19.4612 12.6793C19.4542 10.4621 18.8931 8.38202 17.7776 6.43899C18.8888 6.43101 19.9703 6.56826 21.0221 6.85074C22.0738 7.13321 23.0778 7.55049 24.0341 8.10257C25.5316 8.96715 26.7748 10.0638 27.7637 11.3926C28.7527 12.7213 29.4531 14.1541 29.8648 15.6908C30.2766 17.2276 30.3865 18.8186 30.1944 20.4638C30.0023 22.109 29.474 23.6804 28.6094 25.1779C27.7448 26.6754 26.6481 27.9186 25.3194 28.9076C23.9906 29.8965 22.5579 30.5969 21.0211 31.0087C19.4843 31.4205 17.8933 31.5303 16.2481 31.3382C14.6029 31.1461 13.0316 30.6178 11.5341 29.7532Z" fill="#1C1B1F"/>
</g>
</svg>
