<svg width="25" height="25" viewBox="0 0 25 25" fill="none" xmlns="http://www.w3.org/2000/svg">
<mask id="mask0_2309_8798" style="mask-type:alpha" maskUnits="userSpaceOnUse" x="0" y="0" width="25" height="25">
<rect x="0.333191" y="0.713013" width="24" height="24" fill="#D9D9D9"/>
</mask>
<g mask="url(#mask0_2309_8798)">
<path d="M1.33319 14.713H3.33319V18.713C3.33319 18.9963 3.42902 19.2338 3.62069 19.4255C3.81236 19.6172 4.04986 19.713 4.33319 19.713H6.60819C6.79152 19.3963 7.03736 19.1505 7.34569 18.9755C7.65402 18.8005 7.98319 18.713 8.33319 18.713H9.33319V17.713C9.33319 17.4297 9.42902 17.1922 9.62069 17.0005C9.81236 16.8088 10.0499 16.713 10.3332 16.713C10.6165 16.713 10.854 16.8088 11.0457 17.0005C11.2374 17.1922 11.3332 17.4297 11.3332 17.713V18.713H13.3332V17.713C13.3332 17.4297 13.429 17.1922 13.6207 17.0005C13.8124 16.8088 14.0499 16.713 14.3332 16.713C14.6165 16.713 14.854 16.8088 15.0457 17.0005C15.2374 17.1922 15.3332 17.4297 15.3332 17.713V18.713H16.3332C16.6832 18.713 17.0124 18.8005 17.3207 18.9755C17.629 19.1505 17.8749 19.3963 18.0582 19.713H20.3332C20.6165 19.713 20.854 19.6172 21.0457 19.4255C21.2374 19.2338 21.3332 18.9963 21.3332 18.713V14.713H23.3332V18.713C23.3332 19.5463 23.0415 20.2547 22.4582 20.838C21.8749 21.4213 21.1665 21.713 20.3332 21.713H18.0582C17.8749 22.0297 17.629 22.2755 17.3207 22.4505C17.0124 22.6255 16.6832 22.713 16.3332 22.713H8.33319C7.98319 22.713 7.65402 22.6255 7.34569 22.4505C7.03736 22.2755 6.79152 22.0297 6.60819 21.713H4.33319C3.49986 21.713 2.79152 21.4213 2.20819 20.838C1.62486 20.2547 1.33319 19.5463 1.33319 18.713V14.713ZM8.33319 1.71301H10.3332V5.71301C10.3332 6.26301 10.1374 6.73385 9.74569 7.12551C9.35402 7.51718 8.88319 7.71301 8.33319 7.71301H7.33319C6.78319 7.71301 6.31236 7.90885 5.92069 8.30051C5.52902 8.69218 5.33319 9.16301 5.33319 9.71301C5.33319 10.263 5.52902 10.7338 5.92069 11.1255C6.31236 11.5172 6.78319 11.713 7.33319 11.713V13.713C6.23319 13.713 5.29152 13.3213 4.50819 12.538C3.72486 11.7547 3.33319 10.813 3.33319 9.71301C3.33319 8.61301 3.72486 7.67135 4.50819 6.88801C5.29152 6.10468 6.23319 5.71301 7.33319 5.71301H8.33319V1.71301ZM14.3332 1.71301H16.3332V5.71301H17.3332C18.4332 5.71301 19.3749 6.10468 20.1582 6.88801C20.9415 7.67135 21.3332 8.61301 21.3332 9.71301C21.3332 10.813 20.9415 11.7547 20.1582 12.538C19.3749 13.3213 18.4332 13.713 17.3332 13.713V11.713C17.8832 11.713 18.354 11.5172 18.7457 11.1255C19.1374 10.7338 19.3332 10.263 19.3332 9.71301C19.3332 9.16301 19.1374 8.69218 18.7457 8.30051C18.354 7.90885 17.8832 7.71301 17.3332 7.71301H16.3332C15.7832 7.71301 15.3124 7.51718 14.9207 7.12551C14.529 6.73385 14.3332 6.26301 14.3332 5.71301V1.71301ZM12.0582 14.713C11.3249 14.713 10.6624 14.5005 10.0707 14.0755C9.47902 13.6505 9.06652 13.088 8.83319 12.388C8.74986 12.188 8.62486 12.0255 8.45819 11.9005C8.29152 11.7755 8.09986 11.713 7.88319 11.713H7.33319V9.71301H7.88319C8.53319 9.71301 9.12069 9.90051 9.64569 10.2755C10.1707 10.6505 10.5332 11.1463 10.7332 11.763C10.8165 12.0463 10.9832 12.2755 11.2332 12.4505C11.4832 12.6255 11.7582 12.713 12.0582 12.713H12.6082C12.9082 12.713 13.1832 12.6255 13.4332 12.4505C13.6832 12.2755 13.8499 12.0463 13.9332 11.763C14.1332 11.1463 14.4957 10.6505 15.0207 10.2755C15.5457 9.90051 16.1332 9.71301 16.7832 9.71301H17.3332V11.713H16.7832C16.5665 11.713 16.3707 11.7755 16.1957 11.9005C16.0207 12.0255 15.8999 12.188 15.8332 12.388C15.5999 13.088 15.1874 13.6505 14.5957 14.0755C14.004 14.5005 13.3415 14.713 12.6082 14.713H12.0582Z" fill="#1C1B1F"/>
</g>
</svg>
