<svg width="30" height="30" viewBox="0 0 30 30" fill="none" xmlns="http://www.w3.org/2000/svg">
<mask id="mask0_2302_7552" style="mask-type:alpha" maskUnits="userSpaceOnUse" x="0" y="0" width="30" height="30">
<rect width="30" height="30" fill="#D9D9D9"/>
</mask>
<g mask="url(#mask0_2302_7552)">
<path d="M13.75 6.25V1.25H16.25V6.25H13.75ZM22.0625 9.6875L20.3438 7.96875L23.8438 4.375L25.5938 6.15625L22.0625 9.6875ZM23.75 16.25V13.75H28.75V16.25H23.75ZM13.75 28.75V23.75H16.25V28.75H13.75ZM7.9375 9.625L4.375 6.15625L6.15625 4.40625L9.6875 7.9375L7.9375 9.625ZM23.8125 25.625L20.3438 22.0312L22.0312 20.3438L25.5938 23.7812L23.8125 25.625ZM1.25 16.25V13.75H6.25V16.25H1.25ZM6.15625 25.625L4.40625 23.8438L7.90625 20.3438L8.8125 21.1875L9.71875 22.0625L6.15625 25.625ZM15 22.5C12.9167 22.5 11.1458 21.7708 9.6875 20.3125C8.22917 18.8542 7.5 17.0833 7.5 15C7.5 12.9167 8.22917 11.1458 9.6875 9.6875C11.1458 8.22917 12.9167 7.5 15 7.5C17.0833 7.5 18.8542 8.22917 20.3125 9.6875C21.7708 11.1458 22.5 12.9167 22.5 15C22.5 17.0833 21.7708 18.8542 20.3125 20.3125C18.8542 21.7708 17.0833 22.5 15 22.5ZM15 20C16.375 20 17.5521 19.5104 18.5312 18.5312C19.5104 17.5521 20 16.375 20 15C20 13.625 19.5104 12.4479 18.5312 11.4688C17.5521 10.4896 16.375 10 15 10C13.625 10 12.4479 10.4896 11.4688 11.4688C10.4896 12.4479 10 13.625 10 15C10 16.375 10.4896 17.5521 11.4688 18.5312C12.4479 19.5104 13.625 20 15 20Z" fill="#1C1B1F"/>
</g>
</svg>
